<?xml version="1.0" encoding="utf-8"?>
<!-- Generator: Adobe Illustrator 16.0.3, SVG Export Plug-In . SVG Version: 6.00 Build 0)  -->
<!DOCTYPE svg PUBLIC "-//W3C//DTD SVG 1.1//EN" "http://www.w3.org/Graphics/SVG/1.1/DTD/svg11.dtd">
<svg version="1.1" id="Layer_1" xmlns="http://www.w3.org/2000/svg" xmlns:xlink="http://www.w3.org/1999/xlink" x="0px" y="0px"
	 width="406px" height="374px" viewBox="0 0 406 374" enable-background="new 0 0 406 374" xml:space="preserve">
<g>
	<g opacity="0.2">
		<path fill="#FFFFFF" d="M172.671,75.82c-12.875,0-18.087-10.117-18.087-25.139c0-26.364,23.605-47.824,54.875-47.824
			c25.751,0,51.502,15.328,51.502,46.291c0,27.897-15.635,44.146-32.189,61.007c-15.635,16.248-31.882,33.108-31.882,61.619
			c0,10.117-10.423,16.861-26.671,11.343c0-39.854,14.715-59.167,28.511-77.867c11.65-15.328,22.378-29.736,22.378-54.262
			c0-15.021-7.971-21.767-16.554-21.767c-15.328,0-23.299,12.263-23.299,24.832c0,3.985,0.919,10.729,6.438,15.021
			C184.32,73.06,179.109,75.82,172.671,75.82z M182.788,199.365c11.956,0,21.153,9.504,20.54,21.46
			c-0.919,11.956-10.729,21.459-22.686,21.459s-21.153-9.503-20.233-21.459C161.021,208.869,170.832,199.365,182.788,199.365z"/>
	</g>
	<g>
		<path fill="#A0010F" d="M71.615,59.43l-2.439,2.768c-1.748-1.529-3.495-2.185-5.57-2.185c-2.257,0-3.896,1.02-3.896,2.985
			c0,1.82,0.983,2.621,5.17,3.932c4.405,1.384,7.463,3.204,7.463,7.938c0,4.514-3.532,7.718-9.539,7.718
			c-4.005,0-6.99-1.42-9.065-3.459l2.548-2.839c1.748,1.638,3.786,2.585,6.408,2.585c2.694,0,4.624-1.312,4.624-3.75
			c0-2.112-1.056-3.059-4.988-4.26c-5.279-1.639-7.573-3.75-7.573-7.573c0-4.187,3.604-6.954,8.556-6.954
			C66.991,56.335,69.43,57.428,71.615,59.43z"/>
		<path fill="#A0010F" d="M82.503,82.585c-3.787-0.036-5.789-2.185-5.789-6.298V66.129h-3.021v-3.35h3.021v-4.26l4.66-0.546v4.806
			h4.479l-0.474,3.35h-4.005v10.049c0,1.893,0.619,2.657,2.039,2.657c0.728,0,1.456-0.218,2.293-0.728l1.639,3.021
			C85.962,82.113,84.214,82.585,82.503,82.585z"/>
		<path fill="#A0010F" d="M95.212,55.863c0,1.565-1.201,2.803-2.949,2.803c-1.711,0-2.913-1.237-2.913-2.803
			c0-1.603,1.201-2.84,2.913-2.84C94.011,53.023,95.212,54.26,95.212,55.863z M89.969,82.04V62.78h4.66v19.26H89.969z"/>
		<path fill="#A0010F" d="M105.808,78.835c0.364,0,0.765-0.072,1.092-0.182l0.983,3.276c-0.946,0.4-2.111,0.655-3.313,0.655
			c-2.876,0-4.515-1.711-4.515-4.915V55.062l4.66-0.51v22.791C104.715,78.399,105.043,78.835,105.808,78.835z"/>
		<path fill="#A0010F" d="M116.549,78.835c0.364,0,0.765-0.072,1.092-0.182l0.983,3.276c-0.946,0.4-2.111,0.655-3.313,0.655
			c-2.876,0-4.514-1.711-4.514-4.915V55.062l4.66-0.51v22.791C115.458,78.399,115.785,78.835,116.549,78.835z"/>
	</g>
	<g>
		<path fill="#A0010F" d="M125.546,200.887c0,3.095-2.185,5.061-4.952,6.809l5.607,5.279c0.728-1.565,1.42-3.495,1.93-5.68
			l4.041,1.201c-0.946,2.84-2.075,5.134-3.313,6.954l4.26,3.859l-3.75,2.147l-3.167-3.058c-2.185,2.038-4.77,3.058-8.01,3.058
			c-5.097,0-8.628-2.73-8.628-6.953c0-3.095,1.82-5.134,5.024-7.173c-2.366-2.294-3.531-3.859-3.531-6.262
			c0-3.131,2.403-5.862,7.208-5.862C122.742,195.208,125.546,197.647,125.546,200.887z M114.441,214.286
			c0,2.294,1.784,3.713,4.478,3.713c1.93,0,3.422-0.691,4.806-1.929l-6.48-6.226C115.315,211.155,114.441,212.501,114.441,214.286z
			 M115.57,201.07c0,1.529,0.801,2.585,2.439,4.15c1.93-1.238,3.059-2.439,3.059-4.15c0-1.675-1.056-2.694-2.767-2.694
			C116.553,198.375,115.57,199.467,115.57,201.07z"/>
	</g>
	<g>
		<path fill="#FFFFFF" d="M27.233,96.431v46.354H16.713V96.431H2v-8.306h40.579l-1.107,8.306H27.233z"/>
		<path fill="#FFFFFF" d="M59.824,118.342v24.442H49.383V88.125h10.441v21.911h19.459V88.125h10.521v54.659H79.283v-24.442H59.824z"
			/>
		<path fill="#FFFFFF" d="M102.541,142.785V88.125h10.521v54.659H102.541z"/>
		<path fill="#FFFFFF" d="M152.691,142.785l-18.747-44.218c0.554,4.825,1.424,11.786,1.424,21.911v22.307h-9.492V88.125h13.21
			l19.063,44.297c-0.475-3.006-1.424-10.916-1.424-18.668V88.125h9.492v54.659H152.691z"/>
		<path fill="#FFFFFF" d="M179.034,142.785V88.125h10.441v54.659H179.034z M221.67,142.785H209.25l-19.301-29.188l18.905-25.471
			h11.311l-18.905,24.759L221.67,142.785z"/>
		<path fill="#FFFFFF" d="M227.523,142.785V88.125h10.521v54.659H227.523z"/>
		<path fill="#FFFFFF" d="M277.674,142.785l-18.746-44.218c0.553,4.825,1.424,11.786,1.424,21.911v22.307h-9.492V88.125h13.209
			l19.064,44.297c-0.475-3.006-1.424-10.916-1.424-18.668V88.125h9.492v54.659H277.674z"/>
		<path fill="#FFFFFF" d="M343.488,93.346l-5.695,5.933c-3.639-3.006-6.724-4.43-11.391-4.43c-7.752,0-14.396,5.854-14.396,20.566
			c0,14.95,4.43,20.566,12.973,20.566c3.085,0,6.091-0.633,8.701-2.136v-14.238h-8.227l-1.107-7.752h19.617v26.736
			c-5.3,3.322-11.786,5.379-19.222,5.379c-15.188,0-23.73-9.809-23.73-28.556c0-18.51,11.47-28.477,24.917-28.477
			C333.68,86.939,338.9,89.391,343.488,93.346z"/>
		<path fill="#FFFFFF" d="M383.672,99.753c0,12.735-14.316,11.47-14.316,21.041v2.689h-9.414v-3.085
			c0-13.526,13.131-12.419,13.131-19.854c0-3.48-2.531-5.537-6.645-5.537c-3.559,0-7.039,1.661-10.045,5.221l-6.566-5.142
			c4.43-5.221,10.125-8.147,17.482-8.147C378.135,86.939,383.672,93.03,383.672,99.753z M371.254,137.564
			c0,3.48-2.848,6.407-6.486,6.407c-3.561,0-6.328-2.927-6.328-6.407c0-3.56,2.768-6.407,6.328-6.407
			C368.406,131.157,371.254,134.004,371.254,137.564z"/>
	</g>
	<g>
		<path fill="#FFFFFF" d="M82.052,280.912h-5.3v-10.323l-8.78-17.008h5.774l5.774,12.696l5.774-12.696h5.537l-8.78,16.968V280.912z"
			/>
		<path fill="#FFFFFF" d="M114.402,267.227c0,9.017-4.627,14.279-11.944,14.279s-11.984-5.104-11.984-14.239
			c0-8.979,4.667-14.278,11.984-14.278S114.402,258.091,114.402,267.227z M95.971,267.267c0,7.356,2.492,10.243,6.486,10.243
			c4.074,0,6.447-2.887,6.447-10.283c0-7.317-2.333-10.243-6.447-10.243C98.384,256.984,95.971,259.91,95.971,267.267z"/>
		<path fill="#FFFFFF" d="M129.033,281.506c-6.724,0-10.125-3.916-10.125-9.533v-18.392h5.221v18.115
			c0,3.836,1.542,5.735,4.904,5.735c3.401,0,4.944-1.898,4.944-5.735v-18.115h5.26v18.392
			C139.237,277.471,135.717,281.506,129.033,281.506z"/>
		<path fill="#FFFFFF" d="M150.466,269.957v10.956h-5.221v-27.331h8.147c7.159,0,10.837,2.611,10.837,8.029
			c0,3.718-1.819,5.933-5.537,7.396l7.159,11.905h-6.012l-6.051-10.956H150.466z M153.709,266.199c3.243,0,5.063-1.305,5.063-4.588
			c0-2.967-1.701-4.232-5.498-4.232h-2.808v8.82H153.709z"/>
		<path fill="#FFFFFF" d="M200.019,267.109c0,11.075-6.763,13.803-13.289,13.803h-7.436v-27.331h6.724
			C193.216,253.582,200.019,255.796,200.019,267.109z M184.515,276.996h2.571c4.074,0,7.436-1.818,7.436-9.887
			c0-8.227-3.56-9.611-7.594-9.611h-2.413V276.996z"/>
		<path fill="#FFFFFF" d="M204.92,280.912v-27.331h5.26v27.331H204.92z"/>
		<path fill="#FFFFFF" d="M220.304,274.584l-1.7,6.328h-5.419l8.503-27.331h6.447l8.464,27.331h-5.537l-1.7-6.328H220.304z
			 M224.813,257.577l-3.48,13.052h6.961L224.813,257.577z"/>
		<path fill="#FFFFFF" d="M260.445,280.912l-0.713-11.43c-0.236-4.035-0.435-8.267-0.355-11.154l-4.983,19.618h-4.944l-5.299-19.657
			c0.158,3.678,0.078,7.436-0.158,11.352l-0.673,11.272h-5.063l2.175-27.331h6.725l4.864,19.143l4.588-19.143h6.803l2.136,27.331
			H260.445z"/>
		<path fill="#FFFFFF" d="M293.07,267.227c0,9.017-4.627,14.279-11.943,14.279c-7.317,0-11.984-5.104-11.984-14.239
			c0-8.979,4.667-14.278,11.984-14.278C288.443,252.989,293.07,258.091,293.07,267.227z M274.641,267.267
			c0,7.356,2.491,10.243,6.486,10.243c4.073,0,6.446-2.887,6.446-10.283c0-7.317-2.333-10.243-6.446-10.243
			C277.053,256.984,274.641,259.91,274.641,267.267z"/>
		<path fill="#FFFFFF" d="M311.379,280.912l-9.373-22.11c0.277,2.413,0.712,5.894,0.712,10.956v11.154h-4.746v-27.331h6.604
			l9.532,22.149c-0.237-1.502-0.712-5.458-0.712-9.334v-12.814h4.746v27.331H311.379z"/>
		<path fill="#FFFFFF" d="M345.271,267.109c0,11.075-6.764,13.803-13.289,13.803h-7.436v-27.331h6.724
			C338.469,253.582,345.271,255.796,345.271,267.109z M329.768,276.996h2.57c4.074,0,7.436-1.818,7.436-9.887
			c0-8.227-3.559-9.611-7.594-9.611h-2.412V276.996z"/>
		<path fill="#FFFFFF" d="M354.919,278.301c0,1.74-1.384,3.205-3.204,3.205c-1.779,0-3.203-1.465-3.203-3.205
			c0-1.779,1.424-3.203,3.203-3.203C353.535,275.098,354.919,276.521,354.919,278.301z M349.58,271.261l-0.633-17.68h5.457
			l-0.593,17.68H349.58z"/>
	</g>
	<g>
		<path fill="#A0010F" d="M68.962,179.618c-0.237,1.107-0.475,2.215-0.712,3.243c4.351-2.136,8.543-4.509,11.312-6.882
			c1.187,1.028,1.424,2.769,0.079,3.955c-1.424,1.266-6.803,4.825-12.419,7.436c-3.639,14.713-9.492,30.296-23.572,30.296
			c-4.43,0-9.571-3.164-9.571-9.729c0-10.046,10.758-14.792,23.81-20.646c0.712-2.531,1.345-5.379,1.978-8.464l4.825-22.386
			c0.237-1.266-0.079-1.978-0.791-1.978c-0.396,0-0.87,0.316-1.582,0.949c-1.028-0.633-1.582-3.085,0-4.351
			c2.689-2.136,5.537-3.797,8.859-3.797c2.848,0,4.43,1.345,3.797,4.351L68.962,179.618z M56.543,192.432
			c-9.413,4.667-16.058,8.464-16.058,14.476c0,2.769,2.215,3.718,3.243,3.718C49.028,210.625,52.904,204.93,56.543,192.432z
			 M73.233,131.524c3.085,0,5.458,2.452,5.3,5.537c-0.237,3.085-2.769,5.537-5.854,5.537s-5.458-2.452-5.221-5.537
			C67.617,133.976,70.148,131.524,73.233,131.524z"/>
		<path fill="#A0010F" d="M118.954,155.413c-2.057,1.74-5.142,5.458-8.385,7.515c0.079,0.316,0.079,0.633,0.079,0.87
			c0,12.103-11.153,24.047-20.646,24.047c-8.147,0-11.628-6.565-11.628-14.001c0-11.944,8.306-26.895,20.25-26.895
			c3.955,0,7.119,1.107,9.492,4.667c-0.158,1.819-1.503,2.689-2.689,2.215c-1.503-0.554-3.164-0.87-5.063-0.87
			c-7.198,0-11.865,10.6-11.865,18.352c0,6.961,2.373,9.65,5.142,9.65c4.034,0,9.097-5.854,9.097-12.973
			c0-1.028-0.158-2.136-0.396-3.243c-1.424-0.079-2.769-0.396-3.639-0.949c-1.661-4.351,0.079-8.306,4.588-8.306
			c2.689,0,4.983,1.345,6.249,3.639c3.164-1.978,6.091-5.379,9.413-8.068C120.457,152.328,120.061,154.463,118.954,155.413z"/>
		<path fill="#A0010F" d="M121.328,156.441c0.237-1.266-0.079-1.978-0.791-1.978c-0.396,0-0.87,0.316-1.582,0.949
			c-1.028-0.633-1.582-3.085,0-4.351c2.689-2.136,5.537-3.797,8.859-3.797c2.848,0,4.43,1.345,3.797,4.351l-4.825,22.86
			c-0.949,4.43,0.316,5.854,2.373,5.854c2.927,0,6.328-1.978,8.306-3.955c0.87,0.396,1.345,1.107,1.345,1.898
			c0,0.554-0.237,1.187-0.712,1.74c-3.718,4.192-9.018,7.831-14.317,7.831c-3.955,0-8.543-2.215-7.04-9.413L121.328,156.441z
			 M129.95,131.524c3.085,0,5.379,2.452,5.063,5.537c-0.475,3.085-3.085,5.537-6.17,5.537s-5.379-2.452-4.904-5.537
			C124.254,133.976,126.865,131.524,129.95,131.524z"/>
		<path fill="#A0010F" d="M165.466,174.476c-0.87,4.034,0.158,5.774,1.74,5.774c1.424,0,3.243-0.949,4.43-3.797
			c1.503,0,2.373,0.791,2.373,2.136c0,5.537-6.486,9.255-10.916,9.255c-3.955,0-9.571-1.978-7.594-11.232l3.322-15.741
			c0.712-3.322-0.396-4.667-2.136-4.667c-2.136,0-5.3,1.978-7.04,4.113l-4.825,22.544c-0.791,3.639-3.797,4.983-6.645,4.983
			c-1.424,0-2.769-0.396-3.718-1.028l6.486-30.375c0.316-1.266-0.079-1.978-0.791-1.978c-0.396,0-0.87,0.316-1.582,0.949
			c-1.028-0.633-1.582-3.085,0-4.351c2.689-2.136,5.537-3.797,8.859-3.797c2.848,0,4.509,1.345,3.797,4.351l-0.791,3.56
			c3.322-4.746,8.385-7.91,12.973-7.91c4.192,0,7.119,3.322,5.379,11.628L165.466,174.476z"/>
		<path fill="#A0010F" d="M198.058,151.062c2.689-2.136,5.537-3.797,8.859-3.797c2.848,0,4.509,1.345,3.797,4.351l-0.791,3.56
			c3.322-4.746,8.385-7.91,12.973-7.91c4.192,0,7.198,3.322,5.379,11.628l-3.876,18.193c-0.475,2.294,0.554,3.243,2.136,3.243
			c2.927,0,6.328-1.978,8.306-3.955c0.87,0.396,1.345,1.107,1.345,1.898c0,0.554-0.237,1.187-0.712,1.74
			c-3.718,4.192-9.018,7.831-14.317,7.831c-3.955,0-8.147-1.978-6.17-11.232l3.322-15.741c0.712-3.322-0.396-4.667-2.136-4.667
			c-2.136,0-5.3,1.978-7.04,4.113l-4.825,22.544c-0.791,3.639-3.797,4.983-6.645,4.983c-1.424,0-2.769-0.396-3.718-1.028
			l6.486-30.375c0.316-1.266-0.079-1.978-0.791-1.978c-0.396,0-0.87,0.316-1.582,0.949
			C197.029,154.78,196.476,152.328,198.058,151.062z"/>
		<path fill="#A0010F" d="M274.47,155.413c-2.057,1.74-5.142,5.458-8.385,7.515c0.079,0.316,0.079,0.633,0.079,0.87
			c0,12.103-11.153,24.047-20.646,24.047c-8.147,0-11.628-6.565-11.628-14.001c0-11.944,8.306-26.895,20.25-26.895
			c3.955,0,7.119,1.107,9.492,4.667c-0.158,1.819-1.503,2.689-2.689,2.215c-1.503-0.554-3.164-0.87-5.063-0.87
			c-7.198,0-11.865,10.6-11.865,18.352c0,6.961,2.373,9.65,5.142,9.65c4.034,0,9.097-5.854,9.097-12.973
			c0-1.028-0.158-2.136-0.396-3.243c-1.424-0.079-2.769-0.396-3.639-0.949c-1.661-4.351,0.079-8.306,4.588-8.306
			c2.689,0,4.983,1.345,6.249,3.639c3.164-1.978,6.091-5.379,9.413-8.068C275.973,152.328,275.577,154.463,274.47,155.413z"/>
		<path fill="#A0010F" d="M303.817,147.265c1.345,0,2.848,0.396,3.718,1.028c-1.503,6.961-2.769,13.526-2.769,19.459
			c0,4.271,0.712,8.306,2.373,11.865c6.012-4.746,9.967-13.052,9.967-20.487c0-5.3-1.582-9.967-4.904-11.47
			c0.158-4.113,2.689-6.17,5.3-6.091c3.085,0.079,6.407,3.006,6.407,8.78c0,18.114-12.973,37.494-21.516,37.494
			c-4.113,0-5.616-7.436-6.091-15.267c-4.192,9.492-9.413,15.267-13.605,15.267c-5.379,0-7.436-9.492-7.436-18.747
			c0-5.142,0.633-10.204,1.661-13.447c0.237-0.791-0.316-1.187-0.87-1.187c-0.475,0-1.028,0.316-1.503,0.87
			c-1.107-1.028-1.187-1.819-1.187-2.452c0-1.819,5.695-5.616,9.967-5.616c2.848,0,4.43,1.345,3.797,4.351
			c-1.107,5.142-1.898,10.837-1.898,16.058c0,4.667,0.633,8.859,2.215,11.944c4.825-4.746,7.119-13.21,9.729-27.369
			C297.885,148.61,300.97,147.265,303.817,147.265z"/>
	</g>
	<g>
		<path fill="#A0010F" d="M137.619,297.207c0.175-0.934-0.058-1.459-0.583-1.459c-0.292,0-0.642,0.234-1.167,0.701
			c-0.758-0.467-1.167-2.277,0-3.211c1.984-1.576,4.086-2.801,6.537-2.801c2.101,0,3.269,0.992,2.801,3.209l-3.56,16.869
			c-0.7,3.268,0.233,4.318,1.751,4.318c2.16,0,4.669-1.459,6.128-2.918c0.642,0.291,0.992,0.816,0.992,1.4
			c0,0.408-0.175,0.875-0.525,1.283c-2.743,3.094-6.654,5.779-10.564,5.779c-2.918,0-6.304-1.635-5.194-6.945L137.619,297.207z
			 M143.98,278.822c2.276,0,3.969,1.811,3.735,4.086c-0.35,2.275-2.276,4.086-4.552,4.086s-3.969-1.811-3.619-4.086
			C139.778,280.633,141.705,278.822,143.98,278.822z"/>
		<path fill="#A0010F" d="M159.739,294.115l-3.443,16.4c-0.701,3.268,0.233,4.318,1.751,4.318c2.159,0,4.669-1.459,6.128-2.918
			c0.642,0.291,0.992,0.816,0.992,1.4c0,0.408-0.175,0.875-0.525,1.283c-2.743,3.094-7.179,5.779-11.089,5.779
			c-3.561,0-5.895-2.219-4.553-8.639l3.735-17.625h-2.918c-0.292-1.869,0.642-3.387,2.451-3.387h1.167l1.05-4.785
			c0.583-2.686,2.802-3.678,4.903-3.678c1.05,0,2.042,0.293,2.743,0.76l-1.634,7.703h4.261c0.292,1.869-0.642,3.387-2.452,3.387
			H159.739z"/>
		<path fill="#A0010F" d="M161.433,312.674c0.409-2.393,2.101-4.494,4.961-4.494c0.934,0,1.693,0.234,2.334,0.818
			c-0.758,0.875-1.226,2.275-1.226,3.676c0,2.686,1.81,3.854,3.677,3.854c2.218,0,4.611-1.811,4.611-4.67
			c0-4.436-9.63-3.91-9.63-12.666c0-4.668,3.21-8.988,9.98-8.988c4.961,0,7.354,1.869,7.354,5.662c0,3.268-1.926,4.902-4.085,4.785
			c-0.759-0.057-1.576-0.291-2.335-0.816c0.584-0.701,0.992-1.984,0.992-3.152c0-2.158-1.226-3.15-2.626-3.15
			c-1.576,0-3.385,1.576-3.385,4.727c0,6.188,9.572,4.846,9.572,12.258c0,5.66-3.385,9.863-11.965,9.863
			C163.417,320.379,160.791,316.584,161.433,312.674z"/>
		<path fill="#A0010F" d="M198.847,319.912l5.544-25.797h-2.918c-0.292-1.869,0.642-3.387,2.451-3.387h1.167l0.467-2.1
			c1.634-7.529,6.595-12.082,12.14-12.082c4.961,0,7.354,1.867,7.354,5.66c0,3.27-1.926,4.904-4.086,4.787
			c-0.758-0.059-1.575-0.293-2.334-0.818c0.643-1.4,0.934-2.977,0.934-3.793c0-1.109-0.7-1.691-2.159-1.691
			c-2.685,0-4.144,3.91-5.078,8.287l-0.408,1.75h12.898c2.101,0,3.269,0.992,2.802,3.211l-0.759,3.734
			c2.918-5.543,6.128-7.236,8.872-7.236c3.209,0,4.844,2.51,4.844,5.195c0,3.326-2.568,6.887-7.529,5.836
			c1.109-2.219,0.759-4.436-1.168-4.436c-2.158,0-4.727,3.443-7.119,10.855l-1.811,8.813c-0.525,2.686-2.801,3.678-4.902,3.678
			c-1.051,0-2.043-0.293-2.742-0.76l5.135-24.045c0.234-0.992-0.291-1.459-1.225-1.459h-7.996l-5.545,25.797
			c-3.385,15.758-6.42,22.471-14.591,22.471c-3.502,0-6.42-1.926-6.42-6.83c0-0.992,0.759-1.574,1.926-1.574
			c0.467,2.1,1.81,3.209,4.027,3.209C194.586,337.188,196.279,331.818,198.847,319.912z"/>
		<path fill="#A0010F" d="M248.459,310.982c0.584,3.15,2.744,4.318,5.428,4.318c4.203,0,9.572-2.977,12.082-6.303
			c1.518-0.293,2.102,0.934,1.459,1.984c-4.027,5.895-10.797,9.396-16.459,9.396c-3.852,0-7.236-1.576-8.871-5.078
			c-0.233,0.117-0.467,0.234-0.701,0.291c-2.275,0.584-4.377-1.107-3.969-3.385c1.343,0.176,2.51-0.117,3.736-0.641
			c-0.059-0.525-0.117-1.051-0.117-1.635c0-7.588,5.02-19.729,14.65-19.729c5.311,0,6.652,2.977,6.652,5.604
			C262.35,300.768,259.724,304.736,248.459,310.982z M248.284,308.473c5.661-3.561,9.514-7.646,9.514-11.439
			c0-1.344-0.7-2.277-1.692-2.277C250.327,294.756,248.459,304.387,248.284,308.473z"/>
		<path fill="#A0010F" d="M265.212,309.932c0-7.588,5.019-19.729,14.649-19.729c5.311,0,6.654,2.977,6.654,5.604
			c0,4.961-2.627,8.93-13.892,15.176c0.583,2.977,2.567,4.318,5.077,4.318c2.568,0,4.437-1.227,5.429-3.326
			c1.108,0,1.751,0.584,1.751,1.576c0,3.209-5.369,6.828-10.506,6.828C269.006,320.379,265.212,317.576,265.212,309.932z
			 M272.449,308.473c5.661-3.561,9.514-7.646,9.514-11.439c0-1.344-0.701-2.277-1.693-2.277
			C274.492,294.756,272.624,304.387,272.449,308.473z"/>
	</g>
	<g>
		<path fill="#FFFFFF" d="M145.21,227.765v5.985h6.159v2.833h-6.159v8.328h-3.817v-19.98h11.306l-0.405,2.834H145.21z"/>
		<path fill="#FFFFFF" d="M155.533,244.912v-19.98h3.846v19.98H155.533z"/>
		<path fill="#FFFFFF" d="M173.865,244.912l-6.853-16.164c0.203,1.765,0.521,4.309,0.521,8.01v8.154h-3.47v-19.98h4.829
			l6.969,16.192c-0.173-1.099-0.521-3.99-0.521-6.824v-9.368h3.47v19.98H173.865z"/>
		<path fill="#FFFFFF" d="M198.645,234.82c0,8.097-4.944,10.092-9.715,10.092h-5.436v-19.98h4.916
			C193.672,224.931,198.645,226.55,198.645,234.82z M187.311,242.049h1.879c2.978,0,5.436-1.33,5.436-7.229
			c0-6.014-2.603-7.026-5.552-7.026h-1.764V242.049z"/>
	</g>
</g>
</svg>
