<?xml version="1.0" encoding="utf-8"?>
<!-- Generator: Adobe Illustrator 16.0.3, SVG Export Plug-In . SVG Version: 6.00 Build 0)  -->
<!DOCTYPE svg PUBLIC "-//W3C//DTD SVG 1.1//EN" "http://www.w3.org/Graphics/SVG/1.1/DTD/svg11.dtd">
<svg version="1.1" id="Layer_1" xmlns="http://www.w3.org/2000/svg" xmlns:xlink="http://www.w3.org/1999/xlink" x="0px" y="0px"
	 width="97px" height="96px" viewBox="0 0 97 96" enable-background="new 0 0 97 96" xml:space="preserve">
<g>
	<path fill="#A0010F" d="M52.74,14.252c20.958,0,38.008,17.05,38.008,38.008c0,20.957-17.05,38.007-38.008,38.007
		c-20.957,0-38.007-17.05-38.007-38.007C14.733,31.302,31.783,14.252,52.74,14.252 M52.74,10c-23.338,0-42.259,18.921-42.259,42.26
		S29.402,94.519,52.74,94.519C76.08,94.519,95,75.599,95,52.26S76.08,10,52.74,10L52.74,10z"/>
	<path id="world_1_" fill="#58595B" d="M53.5,27.174c-14.083,0-25.5,11.417-25.5,25.5s11.417,25.5,25.5,25.5S79,66.757,79,52.674
		S67.583,27.174,53.5,27.174z M75.668,51.852h-9.864c-0.09-3.645-0.739-7.126-1.888-10.311c2.222-0.928,4.274-2.16,6.146-3.615
		C73.39,41.662,75.473,46.513,75.668,51.852z M52.591,74.838c-2.735-2.277-5.029-5.233-6.706-8.667
		c2.152-0.673,4.434-1.043,6.792-1.116v9.787C52.648,74.842,52.619,74.838,52.591,74.838z M54.406,30.51
		c3.104,2.582,5.636,6.043,7.349,10.079c-2.348,0.8-4.839,1.266-7.434,1.351V30.506C54.352,30.506,54.379,30.51,54.406,30.51z
		 M57.147,30.791c4.54,0.755,8.614,2.873,11.786,5.945c-1.723,1.32-3.606,2.439-5.64,3.287
		C61.797,36.473,59.695,33.336,57.147,30.791z M52.677,30.506v11.434c-2.594-0.086-5.088-0.551-7.432-1.351
		c1.713-4.036,4.244-7.497,7.348-10.079C52.621,30.51,52.648,30.506,52.677,30.506z M43.704,40.023
		c-2.031-0.847-3.915-1.965-5.638-3.287c3.171-3.068,7.246-5.189,11.786-5.944C47.302,33.336,45.203,36.473,43.704,40.023z
		 M44.626,42.105c2.534,0.881,5.238,1.394,8.051,1.479v8.268h-9.835C42.931,48.406,43.539,45.114,44.626,42.105z M52.677,53.496
		v9.912c-2.594,0.08-5.102,0.504-7.467,1.266c-1.424-3.393-2.266-7.17-2.368-11.178H52.677z M49.853,74.557
		c-4.067-0.676-7.763-2.447-10.767-5.02c1.619-1.125,3.372-2.074,5.244-2.798C45.764,69.713,47.643,72.355,49.853,74.557z
		 M54.323,74.842v-9.787c2.355,0.076,4.64,0.444,6.792,1.117c-1.68,3.434-3.971,6.391-6.706,8.666
		C54.382,74.838,54.352,74.842,54.323,74.842z M62.67,66.739c1.871,0.724,3.621,1.676,5.244,2.798
		c-3.004,2.57-6.699,4.344-10.767,5.02C59.357,72.355,61.234,69.713,62.67,66.739z M61.791,64.674
		c-2.366-0.762-4.875-1.186-7.468-1.266v-9.912h9.835C64.056,57.504,63.214,61.281,61.791,64.674z M54.323,51.852v-8.268
		c2.811-0.085,5.514-0.598,8.052-1.477c1.083,3.008,1.693,6.301,1.783,9.745L54.323,51.852L54.323,51.852z M36.938,37.926
		c1.874,1.455,3.927,2.688,6.146,3.615c-1.148,3.185-1.799,6.666-1.889,10.311h-9.864C31.527,46.513,33.61,41.662,36.938,37.926z
		 M31.332,53.496h9.864c0.102,4.203,0.98,8.174,2.472,11.74c-2.084,0.814-4.026,1.896-5.819,3.179
		C33.986,64.568,31.548,59.314,31.332,53.496z M69.151,68.412c-1.793-1.279-3.735-2.363-5.822-3.177
		c1.494-3.567,2.371-7.536,2.475-11.74h9.864C75.452,59.314,73.015,64.568,69.151,68.412z"/>
	<circle fill="#A0010F" cx="15" cy="15" r="14"/>
	<g>
		<path fill="#E6E7E8" d="M17.898,19.449V23h-2.882v-3.551H8.422v-2.028l4.519-10.237l2.513,0.945l-3.966,9.061h3.551l0.3-3.896
			h2.559v3.896h1.868v2.26H17.898z"/>
	</g>
</g>
</svg>
