<?xml version="1.0" encoding="utf-8"?>
<!-- Generator: Adobe Illustrator 16.0.3, SVG Export Plug-In . SVG Version: 6.00 Build 0)  -->
<!DOCTYPE svg PUBLIC "-//W3C//DTD SVG 1.1//EN" "http://www.w3.org/Graphics/SVG/1.1/DTD/svg11.dtd">
<svg version="1.1" id="Layer_1" xmlns="http://www.w3.org/2000/svg" xmlns:xlink="http://www.w3.org/1999/xlink" x="0px" y="0px"
	 width="97px" height="96px" viewBox="0 0 97 96" enable-background="new 0 0 97 96" xml:space="preserve">
<g>
	<path fill="#A0010F" d="M53.74,14.252c20.958,0,38.008,17.05,38.008,38.008c0,20.957-17.05,38.007-38.008,38.007
		c-20.957,0-38.007-17.05-38.007-38.007C15.733,31.302,32.783,14.252,53.74,14.252 M53.74,10c-23.338,0-42.259,18.921-42.259,42.26
		S30.402,94.519,53.74,94.519C77.08,94.519,96,75.599,96,52.26S77.08,10,53.74,10L53.74,10z"/>
	<g id="photo_3_">
		<path fill="#6D6E71" d="M70.481,27H37.482c-3.314,0-6,2.687-6,6v36c0,3.313,2.687,6,6,6h32.999c3.314,0,6-2.687,6-6V33
			C76.481,29.687,73.795,27,70.481,27z M73.481,69c0,1.653-1.348,3-3,3H37.482c-1.656,0-3-1.347-3-3V33c0-1.655,1.345-3,3-3h32.999
			c1.652,0,3,1.345,3,3V69z"/>
		<path fill="#6D6E71" d="M65.482,56.459c-1.337-1.744-2.955-2.878-5.272-3.521l-2.171,7.605c0,0.699-0.574,1.271-1.274,1.271
			s-1.274-0.572-1.274-1.271v-6.051c0-0.878-0.713-1.593-1.592-1.593s-1.592,0.715-1.592,1.593v6.051
			c0,0.699-0.574,1.271-1.274,1.271s-1.274-0.572-1.274-1.271l-2.171-7.605c-2.318,0.65-3.936,1.777-5.272,3.521
			c-0.529,0.689-0.816,2.07-0.835,2.809c0.007,0.191,0,0.415,0,0.637v1.274v1.273c0,1.407,1.14,2.548,2.548,2.548h19.74
			c1.408,0,2.548-1.141,2.548-2.548v-1.273v-1.274c0-0.222-0.007-0.445,0-0.637C66.298,58.529,66.011,57.148,65.482,56.459z
			 M47.213,41.17c0,3.719,2.319,9.182,6.687,9.182c4.292,0,6.687-5.463,6.687-9.182c0-3.72-2.994-6.738-6.687-6.738
			C50.206,34.432,47.213,37.45,47.213,41.17z"/>
	</g>
</g>
<g>
	<circle fill="#A0010F" cx="15.481" cy="15" r="14"/>
	<g>
		<path fill="#E6E7E8" d="M14.575,23V10.458l-3.458,2.098l-1.291-1.982l5.049-3.09h2.605V23H14.575z"/>
	</g>
</g>
</svg>
