<?xml version="1.0" encoding="utf-8"?>
<!-- Generator: Adobe Illustrator 16.0.3, SVG Export Plug-In . SVG Version: 6.00 Build 0)  -->
<!DOCTYPE svg PUBLIC "-//W3C//DTD SVG 1.1//EN" "http://www.w3.org/Graphics/SVG/1.1/DTD/svg11.dtd">
<svg version="1.1" id="Layer_1" xmlns="http://www.w3.org/2000/svg" xmlns:xlink="http://www.w3.org/1999/xlink" x="0px" y="0px"
	 width="97px" height="96px" viewBox="0 0 97 96" enable-background="new 0 0 97 96" xml:space="preserve">
<g>
	<circle fill="#A0010F" cx="15.481" cy="15" r="14"/>
	<g>
		<path fill="#E6E7E8" d="M14.575,23V10.458l-3.458,2.098l-1.291-1.982l5.049-3.09h2.605V23H14.575z"/>
	</g>
</g>
<g>
	<path fill="#A0010F" d="M53.97,14.18c20.844,0,37.801,16.958,37.801,37.801c0,20.843-16.958,37.801-37.801,37.801
		c-20.843,0-37.801-16.958-37.801-37.801C16.169,31.138,33.126,14.18,53.97,14.18 M53.97,9.951
		c-23.211,0-42.029,18.818-42.029,42.03c0,23.212,18.818,42.029,42.029,42.029C77.183,94.011,96,75.194,96,51.981
		C96,28.77,77.183,9.951,53.97,9.951L53.97,9.951z"/>
	<g>
		<path fill="#58595B" d="M60.903,37.426c2.238,0.519,4.018,2.425,4.536,4.506c0.177,0.974,1.025,1.709,2.042,1.709
			c1.139,0,2.071-0.932,2.071-2.073c0-1.491-1.253-3.76-2.962-5.458c-1.678-1.658-3.677-2.826-5.325-2.826
			c-1.138,0-2.071,0.961-2.071,2.102C59.194,36.401,59.928,37.25,60.903,37.426z M32.426,64.587c-1.606,1.605-1.606,4.217,0,5.823
			c1.605,1.606,4.217,1.606,5.811,0L50.14,58.517c2.776,1.732,6.049,2.736,9.572,2.736c10.017,0,18.127-8.112,18.127-18.129
			c0-10.017-8.111-18.126-18.127-18.126s-18.129,8.11-18.129,18.126c0,3.512,1.006,6.796,2.735,9.573L32.426,64.587z M46.764,43.124
			c0-7.146,5.8-12.947,12.948-12.947c7.147,0,12.948,5.8,12.948,12.947c0,7.148-5.8,12.949-12.948,12.949
			C52.563,56.072,46.764,50.272,46.764,43.124z"/>
	</g>
	<circle fill="#A0010F" cx="14.924" cy="14.924" r="13.924"/>
	<text transform="matrix(1 0 0 1 8.1177 22.8804)" fill="#E6E7E8" font-family="'FiraSans-Medium'" font-size="22.9253">2</text>
</g>
</svg>
