<?xml version="1.0" encoding="utf-8"?>
<!-- Generator: Adobe Illustrator 16.0.3, SVG Export Plug-In . SVG Version: 6.00 Build 0)  -->
<!DOCTYPE svg PUBLIC "-//W3C//DTD SVG 1.1//EN" "http://www.w3.org/Graphics/SVG/1.1/DTD/svg11.dtd">
<svg version="1.1" id="Layer_1" xmlns="http://www.w3.org/2000/svg" xmlns:xlink="http://www.w3.org/1999/xlink" x="0px" y="0px"
	 width="97px" height="96px" viewBox="0 0 97 96" enable-background="new 0 0 97 96" xml:space="preserve">
<g>
	<circle fill="#A0010F" cx="15.481" cy="15" r="14"/>
	<g>
		<path fill="#E6E7E8" d="M14.575,23V10.458l-3.458,2.098l-1.291-1.982l5.049-3.09h2.605V23H14.575z"/>
	</g>
</g>
<g>
	<g>
		<path fill="#A0010F" d="M52.74,14.252c20.958,0,38.008,17.05,38.008,38.008c0,20.957-17.05,38.007-38.008,38.007
			c-20.957,0-38.007-17.05-38.007-38.007C14.733,31.302,31.783,14.252,52.74,14.252 M52.74,10c-23.338,0-42.259,18.921-42.259,42.26
			S29.402,94.519,52.74,94.519C76.08,94.519,95,75.599,95,52.26S76.08,10,52.74,10L52.74,10z"/>
		<g id="bubble_2_">
			<path fill="#58595B" d="M53.4,37.884c-9.701,0-17.896,5.216-17.896,11.388c0,0.449,0.365,0.813,0.813,0.813
				c0.449,0,0.815-0.364,0.815-0.813c0-5.198,7.602-9.759,16.268-9.759c0.447,0,0.813-0.366,0.813-0.813
				C54.213,38.248,53.848,37.884,53.4,37.884z"/>
			<path fill="#58595B" d="M53.4,29.75c-14.377,0-26.03,8.739-26.03,19.521c0,6.715,4.521,12.632,11.401,16.148
				c0,0.042-0.014,0.074-0.014,0.118c0,2.919-2.176,6.056-3.137,7.708c0.002,0,0.006,0,0.006,0c-0.078,0.178-0.123,0.371-0.123,0.58
				c0,0.813,0.659,1.475,1.475,1.475c0.154,0,0.422-0.042,0.416-0.021c5.084-0.836,9.873-5.504,10.986-6.859
				c1.622,0.24,3.299,0.373,5.02,0.373c14.371,0,26.027-8.74,26.027-19.521C79.428,38.489,67.771,29.75,53.4,29.75z M53.4,65.538
				c-1.494,0-3.023-0.113-4.549-0.335c-0.158-0.027-0.317-0.037-0.471-0.037c-0.967,0-1.895,0.435-2.516,1.191
				c-0.697,0.847-2.68,2.737-5.021,4.131c0.636-1.458,1.131-3.088,1.165-4.772c0.01-0.104,0.016-0.208,0.016-0.298
				c0-1.224-0.686-2.338-1.773-2.896c-6.029-3.078-9.627-8.031-9.627-13.25c0-8.967,10.215-16.268,22.775-16.268
				c12.553,0,22.773,7.301,22.773,16.268C76.174,58.24,65.955,65.538,53.4,65.538z"/>
		</g>
	</g>
	<g>
		<circle fill="#A0010F" cx="15" cy="15" r="14"/>
		<g>
			<path fill="#E6E7E8" d="M18.382,11.149c0,1.937-1.199,3.158-3.02,3.643c1.937,0.185,3.527,1.384,3.527,3.781
				c0,2.651-2.075,4.772-5.625,4.772c-2.121,0-3.828-0.784-5.026-2.236l1.683-1.591c0.945,1.061,1.96,1.521,3.182,1.521
				c1.66,0,2.744-0.991,2.744-2.605c0-1.844-1.038-2.489-2.79-2.489h-1.222l0.346-2.099h0.83c1.453,0,2.49-0.83,2.49-2.352
				c0-1.269-0.899-2.029-2.283-2.029c-1.199,0-2.144,0.438-3.112,1.36L8.606,9.189c1.383-1.314,2.997-1.982,4.865-1.982
				C16.676,7.207,18.382,9.005,18.382,11.149z"/>
		</g>
	</g>
</g>
</svg>
