<?xml version="1.0" encoding="utf-8"?>
<!-- Generator: Adobe Illustrator 16.0.3, SVG Export Plug-In . SVG Version: 6.00 Build 0)  -->
<!DOCTYPE svg PUBLIC "-//W3C//DTD SVG 1.1//EN" "http://www.w3.org/Graphics/SVG/1.1/DTD/svg11.dtd">
<svg version="1.1" id="Layer_1" xmlns="http://www.w3.org/2000/svg" xmlns:xlink="http://www.w3.org/1999/xlink" x="0px" y="0px"
	 width="87px" height="87px" viewBox="0 0 87 87" enable-background="new 0 0 87 87" xml:space="preserve">
<g>
	<path fill="#A0010F" d="M43.5,5.276c21.077,0,38.224,17.147,38.224,38.224c0,21.076-17.147,38.223-38.224,38.223
		c-21.076,0-38.223-17.147-38.223-38.223C5.276,22.424,22.423,5.276,43.5,5.276 M43.5,1C20.028,1,1,20.029,1,43.5S20.028,86,43.5,86
		S86,66.972,86,43.5S66.971,1,43.5,1L43.5,1z"/>
</g>
<g id="like_3_">
	<g>
		<path fill="#58595B" d="M60.09,32.959c-1.547-0.406-5.186-0.401-10.503-0.542c0.251-1.163,0.308-2.208,0.308-4.067
			c0-4.438-3.234-8.35-6.095-8.35c-2.021,0-3.687,1.652-3.713,3.683c-0.026,2.494-0.795,6.796-4.948,8.98
			c-0.304,0.16-1.178,0.591-1.306,0.644l0.066,0.057c-0.648-0.558-1.549-0.988-2.475-0.988h-3.713c-2.045,0-3.711,1.664-3.711,3.711
			v19.801c0,2.047,1.666,3.713,3.711,3.713h3.713c1.473,0,2.707-0.89,3.301-2.138c0.018,0.007,0.044,0.013,0.059,0.015
			c0.082,0.022,0.178,0.047,0.296,0.08c0.022,0.004,0.033,0.006,0.058,0.013c0.712,0.176,2.085,0.505,5.019,1.18
			c0.628,0.144,3.951,0.851,7.39,0.851h6.765c2.062,0,3.549-0.793,4.435-2.387c0.011-0.025,0.297-0.58,0.527-1.331
			c0.176-0.564,0.242-1.366,0.031-2.178c1.327-0.912,1.758-2.294,2.034-3.192c0.466-1.475,0.325-2.58,0.002-3.375
			c0.745-0.705,1.385-1.78,1.655-3.424c0.167-1.018-0.014-2.063-0.483-2.936c0.703-0.786,1.02-1.775,1.057-2.691l0.016-0.26
			c0.009-0.16,0.018-0.264,0.018-0.617C63.602,35.645,62.516,33.652,60.09,32.959z M32.664,55.887c0,0.686-0.554,1.238-1.239,1.238
			h-3.713c-0.683,0-1.235-0.553-1.235-1.238V36.086c0-0.683,0.552-1.236,1.235-1.236h3.713c0.686,0,1.239,0.554,1.239,1.236V55.887z
			 M61.097,37.987c-0.024,0.61-0.281,1.813-2.448,1.813c-1.854,0-2.475,0-2.475,0c-0.342,0-0.619,0.276-0.619,0.617
			c0,0.343,0.277,0.62,0.619,0.62c0,0,0.541,0,2.4,0c1.854,0,2.101,1.54,1.979,2.28c-0.154,0.923-0.587,2.67-2.679,2.67
			c-2.088,0-2.938,0-2.938,0c-0.343,0-0.617,0.274-0.617,0.617s0.274,0.62,0.617,0.62c0,0,1.47,0,2.437,0
			c2.088,0,1.903,1.593,1.604,2.542c-0.394,1.25-0.636,2.408-3.268,2.408c-0.891,0-2.02,0-2.02,0c-0.343,0-0.617,0.274-0.617,0.617
			s0.274,0.62,0.617,0.62c0,0,0.859,0,1.942,0c1.354,0,1.415,1.281,1.274,1.74c-0.154,0.503-0.338,0.875-0.343,0.893
			c-0.378,0.674-0.978,1.08-2.255,1.08h-6.765c-3.399,0-6.77-0.773-6.858-0.791c-5.137-1.184-5.41-1.276-5.733-1.368
			c0,0-1.048-0.176-1.048-1.09l-0.009-17.093c0-0.58,0.371-1.104,0.984-1.288c0.074-0.03,0.18-0.063,0.255-0.095
			c5.651-2.34,7.374-7.473,7.424-11.689c0.007-0.591,0.464-1.236,1.237-1.236c1.31,0,3.621,2.625,3.621,5.875
			c0,2.936-0.118,3.443-1.146,6.5c12.375,0,12.289,0.18,13.382,0.463c1.354,0.387,1.47,1.51,1.47,1.896
			C61.125,37.631,61.115,37.569,61.097,37.987z"/>
		<path fill="#58595B" d="M29.57,52.175c-1.026,0-1.859,0.831-1.859,1.856c0,1.024,0.833,1.855,1.859,1.855
			c1.024,0,1.854-0.831,1.854-1.855C31.424,53.006,30.594,52.175,29.57,52.175z M29.57,54.649c-0.343,0-0.619-0.277-0.619-0.618
			c0-0.342,0.276-0.619,0.619-0.619c0.339,0,0.618,0.277,0.618,0.619C30.188,54.372,29.909,54.649,29.57,54.649z"/>
	</g>
</g>
</svg>
