<?xml version="1.0" encoding="utf-8"?>
<!-- Generator: Adobe Illustrator 16.0.3, SVG Export Plug-In . SVG Version: 6.00 Build 0)  -->
<!DOCTYPE svg PUBLIC "-//W3C//DTD SVG 1.1//EN" "http://www.w3.org/Graphics/SVG/1.1/DTD/svg11.dtd">
<svg version="1.1" id="Layer_1" xmlns="http://www.w3.org/2000/svg" xmlns:xlink="http://www.w3.org/1999/xlink" x="0px" y="0px"
	 width="87px" height="87px" viewBox="0 0 87 87" enable-background="new 0 0 87 87" xml:space="preserve">
<g>
	<path fill="#A0010F" d="M43.5,5.276c21.077,0,38.224,17.147,38.224,38.224c0,21.076-17.147,38.223-38.224,38.223
		c-21.076,0-38.223-17.147-38.223-38.223C5.276,22.424,22.423,5.276,43.5,5.276 M43.5,1C20.028,1,1,20.029,1,43.5S20.028,86,43.5,86
		S86,66.972,86,43.5S66.971,1,43.5,1L43.5,1z"/>
</g>
<g>
	<g>
		<path fill="#58595B" d="M55.27,22.239c0,3.989-2.384,6.665-6.421,7.832c4.086,0.438,7.492,2.871,7.492,8.076
			c0,5.497-4.426,10.118-12.551,10.118c-4.961,0-8.708-1.848-11.286-4.961l4.232-4.087c2.042,2.238,4.037,3.211,6.615,3.211
			c3.016,0,5.108-1.751,5.108-4.768c0-3.453-1.897-4.718-5.351-4.718h-2.724l0.827-5.303h1.897c2.919,0,4.718-1.557,4.718-4.281
			c0-2.383-1.702-3.794-4.378-3.794c-2.432,0-4.475,0.973-6.421,2.87l-3.794-4.135c3.064-2.919,6.713-4.428,11.091-4.428
			C51.427,13.871,55.27,17.617,55.27,22.239z"/>
	</g>
</g>
<g>
	<g>
		<path fill="#58595B" d="M34.246,61.863c0,5.37-3.279,6.694-6.445,6.694h-3.606V55.302h3.261
			C30.946,55.302,34.246,56.376,34.246,61.863z M26.726,66.658h1.248c1.975,0,3.606-0.882,3.606-4.795
			c0-3.99-1.727-4.661-3.683-4.661h-1.171V66.658z"/>
		<path fill="#58595B" d="M37.856,65.488l-0.825,3.069h-2.628l4.125-13.255h3.126l4.105,13.255h-2.686l-0.824-3.069H37.856z
			 M40.043,57.24l-1.688,6.33h3.375L40.043,57.24z"/>
		<path fill="#58595B" d="M51.133,68.557h-2.57V63.55l-4.259-8.248h2.8l2.801,6.157l2.801-6.157h2.685l-4.258,8.229V68.557z"/>
		<path fill="#58595B" d="M64.335,56.645l-1.286,1.458c-0.92-0.805-1.842-1.15-2.935-1.15c-1.189,0-2.053,0.536-2.053,1.572
			c0,0.959,0.518,1.381,2.725,2.072c2.32,0.729,3.931,1.688,3.931,4.181c0,2.378-1.86,4.067-5.025,4.067
			c-2.11,0-3.683-0.749-4.776-1.822l1.343-1.497c0.921,0.863,1.995,1.362,3.376,1.362c1.419,0,2.436-0.69,2.436-1.976
			c0-1.113-0.556-1.611-2.628-2.244c-2.781-0.863-3.989-1.976-3.989-3.99c0-2.206,1.898-3.663,4.508-3.663
			C61.898,55.015,63.184,55.59,64.335,56.645z"/>
	</g>
</g>
<polygon fill="#58595B" points="15.593,44.701 16.528,46.594 18.618,46.897 17.106,48.372 17.462,50.454 15.593,49.471 
	13.725,50.454 14.081,48.372 12.568,46.897 14.658,46.594 "/>
<polygon fill="#58595B" points="70.922,44.701 71.857,46.594 73.947,46.897 72.435,48.372 72.792,50.454 70.922,49.471 
	69.053,50.454 69.41,48.372 67.897,46.897 69.987,46.594 "/>
</svg>
