<?xml version="1.0" encoding="utf-8"?>
<!-- Generator: Adobe Illustrator 16.0.3, SVG Export Plug-In . SVG Version: 6.00 Build 0)  -->
<!DOCTYPE svg PUBLIC "-//W3C//DTD SVG 1.1//EN" "http://www.w3.org/Graphics/SVG/1.1/DTD/svg11.dtd">
<svg version="1.1" id="Layer_1" xmlns="http://www.w3.org/2000/svg" xmlns:xlink="http://www.w3.org/1999/xlink" x="0px" y="0px"
	 width="87px" height="87px" viewBox="0 0 87 87" enable-background="new 0 0 87 87" xml:space="preserve">
<g>
	<path fill="#A0010F" d="M43.5,5.276c21.077,0,38.224,17.147,38.224,38.224c0,21.076-17.147,38.223-38.224,38.223
		c-21.076,0-38.223-17.147-38.223-38.223C5.276,22.424,22.423,5.276,43.5,5.276 M43.5,1C20.028,1,1,20.029,1,43.5S20.028,86,43.5,86
		S86,66.972,86,43.5S66.971,1,43.5,1L43.5,1z"/>
</g>
<g id="photo_4_">
	<path fill="#6D6E71" d="M55.066,21.533H27.934c-2.725,0-4.934,2.209-4.934,4.934v29.6C23,58.791,25.209,61,27.934,61h27.133
		C57.791,61,60,58.791,60,56.066v-29.6C60,23.742,57.791,21.533,55.066,21.533z M57.533,56.066c0,1.359-1.108,2.467-2.467,2.467
		H27.934c-1.361,0-2.467-1.107-2.467-2.467v-29.6c0-1.361,1.105-2.467,2.467-2.467h27.133c1.358,0,2.467,1.105,2.467,2.467V56.066z"
		/>
	<g>
		<path fill="#6D6E71" d="M53.649,27.884v21.831H29.351V27.884H53.649 M53.834,26.467H29.166c-0.681,0-1.232,0.552-1.232,1.233v22.2
			c0,0.682,0.552,1.232,1.232,1.232h24.668c0.681,0,1.232-0.551,1.232-1.232V27.7C55.066,27.019,54.515,26.467,53.834,26.467
			L53.834,26.467z"/>
	</g>
	<path fill="#6D6E71" d="M36.3,37.566c2.042,0,3.7-1.656,3.7-3.699c0-2.044-1.658-3.7-3.7-3.7c-2.045,0-3.7,1.656-3.7,3.7
		C32.6,35.91,34.255,37.566,36.3,37.566z M36.3,31.4c1.358,0,2.467,1.105,2.467,2.467c0,1.36-1.108,2.466-2.467,2.466
		c-1.361,0-2.467-1.105-2.467-2.466C33.833,32.506,34.938,31.4,36.3,31.4z"/>
	<path fill="#6D6E71" d="M47.3,37.566c2.042,0,3.7-1.656,3.7-3.699c0-2.044-1.658-3.7-3.7-3.7c-2.045,0-3.7,1.656-3.7,3.7
		C43.6,35.91,45.255,37.566,47.3,37.566z M47.3,31.4c1.358,0,2.467,1.105,2.467,2.467c0,1.36-1.108,2.466-2.467,2.466
		c-1.361,0-2.467-1.105-2.467-2.466C44.833,32.506,45.938,31.4,47.3,31.4z"/>
	<path fill="none" stroke="#6D6E71" stroke-width="1.4173" stroke-miterlimit="10" d="M33,41c0,0-0.001,5,8,5s9-5,9-5"/>
</g>
<g>
	<path fill="#6D6E71" d="M56.571,58.554c-0.544,0-1.088-0.208-1.503-0.623l-8.571-8.571c-0.83-0.831-0.83-2.176,0-3.007
		c0.83-0.83,2.177-0.83,3.007,0l8.571,8.571c0.83,0.831,0.83,2.176,0,3.007C57.66,58.346,57.115,58.554,56.571,58.554z"/>
</g>
<g>
	<path fill="#6D6E71" d="M56.571,58.554c-0.544,0-1.088-0.208-1.503-0.623c-0.83-0.831-0.83-2.177,0-3.007l15.429-15.428
		c0.83-0.83,2.177-0.83,3.007,0c0.83,0.831,0.83,2.177,0,3.007L58.075,57.931C57.66,58.346,57.115,58.554,56.571,58.554z"/>
</g>
</svg>
