<?xml version="1.0" encoding="utf-8"?>
<!-- Generator: Adobe Illustrator 16.0.3, SVG Export Plug-In . SVG Version: 6.00 Build 0)  -->
<!DOCTYPE svg PUBLIC "-//W3C//DTD SVG 1.1//EN" "http://www.w3.org/Graphics/SVG/1.1/DTD/svg11.dtd">
<svg version="1.1" id="Layer_1" xmlns="http://www.w3.org/2000/svg" xmlns:xlink="http://www.w3.org/1999/xlink" x="0px" y="0px"
	 width="87px" height="87px" viewBox="0 0 87 87" enable-background="new 0 0 87 87" xml:space="preserve">
<g>
	<path fill="#A0010F" d="M43.5,5.276c21.077,0,38.224,17.147,38.224,38.224c0,21.076-17.147,38.223-38.224,38.223
		c-21.076,0-38.223-17.147-38.223-38.223C5.276,22.424,22.423,5.276,43.5,5.276 M43.5,1C20.028,1,1,20.029,1,43.5S20.028,86,43.5,86
		S86,66.972,86,43.5S66.971,1,43.5,1L43.5,1z"/>
</g>
<g>
	<path fill="#58595B" d="M15.182,59.6V44.21l-4.244,2.574l-1.584-2.433l6.195-3.791h3.197V59.6H15.182z"/>
	<path fill="#58595B" d="M36.346,50.095c0,6.364-2.32,9.93-6.818,9.93c-4.47,0-6.818-3.565-6.818-9.93
		c0-6.338,2.348-9.874,6.818-9.874C34.026,40.221,36.346,43.757,36.346,50.095z M26.444,50.095c0,5.318,0.99,7.186,3.083,7.186
		c2.094,0,3.083-1.811,3.083-7.186c0-5.348-0.99-7.13-3.083-7.13C27.435,42.965,26.444,44.832,26.444,50.095z"/>
	<path fill="#58595B" d="M52.56,50.095c0,6.364-2.32,9.93-6.818,9.93c-4.47,0-6.818-3.565-6.818-9.93
		c0-6.338,2.348-9.874,6.818-9.874C50.24,40.221,52.56,43.757,52.56,50.095z M42.658,50.095c0,5.318,0.99,7.186,3.083,7.186
		c2.094,0,3.083-1.811,3.083-7.186c0-5.348-0.99-7.13-3.083-7.13C43.648,42.965,42.658,44.832,42.658,50.095z"/>
	<path fill="#58595B" d="M64.558,45.172c0,3.027-2.093,4.95-4.837,4.95c-2.716,0-4.809-1.923-4.809-4.95s2.093-4.951,4.809-4.951
		C62.464,40.221,64.558,42.145,64.558,45.172z M57.684,45.172c0,1.329,0.424,2.688,2.037,2.688c1.641,0,2.037-1.33,2.037-2.688
		c0-1.33-0.396-2.688-2.037-2.688C58.108,42.484,57.684,43.813,57.684,45.172z M60.427,60.618l-2.319-1.499l13.098-19.775l2.348,1.5
		L60.427,60.618z M76.694,55.073c0,3.027-2.065,4.951-4.81,4.951s-4.837-1.924-4.837-4.951s2.093-4.951,4.837-4.951
		S76.694,52.046,76.694,55.073z M69.848,55.073c0,1.33,0.424,2.688,2.037,2.688c1.641,0,2.037-1.33,2.037-2.688
		c0-1.33-0.396-2.688-2.037-2.688C70.272,52.386,69.848,53.716,69.848,55.073z"/>
</g>
<g id="like_2_">
	<g>
		<path fill="#58595B" d="M50.439,19.76c-0.688-0.181-2.305-0.179-4.668-0.241c0.111-0.517,0.137-0.981,0.137-1.808
			c0-1.973-1.438-3.711-2.709-3.711c-0.898,0-1.639,0.734-1.65,1.637c-0.012,1.108-0.354,3.021-2.199,3.991
			c-0.135,0.071-0.523,0.263-0.58,0.286l0.029,0.025c-0.288-0.248-0.688-0.439-1.1-0.439h-1.65c-0.909,0-1.649,0.739-1.649,1.649
			v8.8c0,0.91,0.74,1.65,1.649,1.65h1.65c0.654,0,1.203-0.396,1.467-0.95c0.008,0.003,0.02,0.006,0.026,0.007
			c0.036,0.01,0.079,0.021,0.132,0.035c0.01,0.002,0.015,0.003,0.025,0.006c0.316,0.078,0.927,0.225,2.23,0.524
			c0.279,0.063,1.756,0.378,3.284,0.378h3.007c0.916,0,1.577-0.353,1.971-1.061c0.005-0.012,0.132-0.258,0.234-0.592
			c0.078-0.251,0.107-0.607,0.014-0.968c0.59-0.405,0.781-1.02,0.904-1.419c0.207-0.655,0.145-1.146,0.001-1.5
			c0.331-0.313,0.615-0.791,0.735-1.521c0.074-0.452-0.006-0.917-0.215-1.305c0.313-0.35,0.453-0.789,0.47-1.196l0.007-0.115
			C51.996,21.852,52,21.806,52,21.648C52,20.953,51.518,20.067,50.439,19.76z M38.25,29.949c0,0.305-0.246,0.551-0.551,0.551h-1.65
			c-0.304,0-0.549-0.246-0.549-0.551v-8.8c0-0.304,0.245-0.55,0.549-0.55h1.65c0.305,0,0.551,0.246,0.551,0.55V29.949z
			 M50.887,21.994c-0.011,0.271-0.125,0.806-1.088,0.806c-0.824,0-1.1,0-1.1,0c-0.152,0-0.275,0.123-0.275,0.274
			c0,0.152,0.123,0.275,0.275,0.275c0,0,0.24,0,1.066,0c0.824,0,0.934,0.685,0.88,1.014c-0.068,0.41-0.261,1.187-1.19,1.187
			c-0.928,0-1.306,0-1.306,0c-0.152,0-0.274,0.122-0.274,0.274s0.122,0.275,0.274,0.275c0,0,0.653,0,1.083,0
			c0.928,0,0.846,0.708,0.713,1.13c-0.175,0.556-0.282,1.07-1.452,1.07c-0.396,0-0.897,0-0.897,0c-0.152,0-0.274,0.122-0.274,0.274
			s0.122,0.275,0.274,0.275c0,0,0.382,0,0.863,0c0.602,0,0.629,0.569,0.566,0.773c-0.068,0.224-0.15,0.389-0.152,0.396
			c-0.168,0.3-0.435,0.48-1.002,0.48h-3.007c-1.511,0-3.009-0.344-3.048-0.352c-2.283-0.526-2.404-0.567-2.548-0.608
			c0,0-0.466-0.078-0.466-0.484l-0.004-7.597c0-0.258,0.165-0.49,0.438-0.572c0.033-0.014,0.08-0.028,0.113-0.042
			c2.512-1.04,3.277-3.321,3.3-5.195c0.003-0.263,0.206-0.55,0.55-0.55c0.582,0,1.609,1.167,1.609,2.611
			c0,1.305-0.053,1.53-0.51,2.889c5.5,0,5.462,0.08,5.947,0.206c0.602,0.172,0.653,0.671,0.653,0.843
			C50.899,21.836,50.895,21.809,50.887,21.994z"/>
		<path fill="#58595B" d="M36.875,28.3c-0.456,0-0.826,0.369-0.826,0.825c0,0.455,0.37,0.824,0.826,0.824
			c0.455,0,0.824-0.369,0.824-0.824C37.699,28.669,37.33,28.3,36.875,28.3z M36.875,29.399c-0.152,0-0.275-0.123-0.275-0.274
			c0-0.152,0.123-0.275,0.275-0.275c0.15,0,0.274,0.123,0.274,0.275C37.149,29.276,37.025,29.399,36.875,29.399z"/>
	</g>
</g>
</svg>
