<?xml version="1.0" encoding="utf-8"?>
<!-- Generator: Adobe Illustrator 16.0.3, SVG Export Plug-In . SVG Version: 6.00 Build 0)  -->
<!DOCTYPE svg PUBLIC "-//W3C//DTD SVG 1.1//EN" "http://www.w3.org/Graphics/SVG/1.1/DTD/svg11.dtd">
<svg version="1.1" id="Layer_1" xmlns="http://www.w3.org/2000/svg" xmlns:xlink="http://www.w3.org/1999/xlink" x="0px" y="0px"
	 width="415px" height="222px" viewBox="0 0 415 222" enable-background="new 0 0 415 222" xml:space="preserve">
<g>
	<path fill="#E6E7E8" d="M198.681,70.16c-10.971,0-15.412-8.62-15.412-21.419c0-22.465,20.113-40.75,46.757-40.75
		c21.942,0,43.884,13.061,43.884,39.443c0,23.771-13.321,37.615-27.428,51.982c-13.321,13.844-27.166,28.211-27.166,52.504
		c0,8.62-8.881,14.367-22.726,9.665c0-33.958,12.539-50.415,24.293-66.349c9.927-13.061,19.069-25.338,19.069-46.235
		c0-12.8-6.792-18.546-14.105-18.546c-13.062,0-19.853,10.448-19.853,21.158c0,3.396,0.784,9.143,5.485,12.8
		C208.607,67.81,204.166,70.16,198.681,70.16z M207.301,175.431c10.188,0,18.023,8.098,17.502,18.284
		C224.019,203.902,215.66,212,205.472,212s-18.024-8.098-17.24-18.285C188.754,183.528,197.113,175.431,207.301,175.431z"/>
</g>
<g>
	<path fill="#84AAD6" d="M76.037,80.255l-3.823-20.061l-3.932,20.061h-6.08l-4.551-25.157h4.769l3.204,21.334l4.114-21.334h5.097
		l4.042,21.334l3.495-21.334h4.551l-4.624,25.157H76.037z"/>
	<path fill="#84AAD6" d="M106.041,66.311v13.944h-4.66V67.039c0-2.403-0.946-3.095-2.366-3.095c-1.639,0-2.913,1.129-4.042,2.876
		v13.435h-4.66V53.313l4.66-0.474v10.449c1.493-1.82,3.277-2.84,5.607-2.84C104.002,60.449,106.041,62.67,106.041,66.311z"/>
	<path fill="#84AAD6" d="M110.413,88.191l-0.474-3.386c3.823-0.582,5.061-1.82,6.153-4.551h-1.602l-6.117-19.26h4.952l4.187,16.165
		l4.369-16.165h4.806l-6.262,19.333C118.968,84.842,116.128,87.755,110.413,88.191z"/>
</g>
<g>
	<path fill="#A0010F" d="M35.976,142.187c-13.447,0-20.25-7.831-20.25-19.063V86.341h10.441v36.229c0,7.673,3.085,11.47,9.809,11.47
		c6.803,0,9.888-3.797,9.888-11.47V86.341h10.521v36.782C56.384,134.118,49.344,142.187,35.976,142.187z"/>
	<path fill="#A0010F" d="M68.408,141V86.341H78.85V141H68.408z M111.044,141H98.625l-19.301-29.188l18.905-25.471h11.312
		L90.636,111.1L111.044,141z"/>
	<path fill="#A0010F" d="M127.339,119.089V141h-10.441V86.341h16.295c14.317,0,21.674,5.221,21.674,16.058
		c0,7.436-3.639,11.865-11.074,14.792L158.11,141h-12.023l-12.103-21.911H127.339z M133.826,111.574
		c6.486,0,10.125-2.61,10.125-9.176c0-5.933-3.401-8.464-10.995-8.464h-5.616v17.64H133.826z"/>
	<path fill="#A0010F" d="M172.666,128.344L169.264,141h-10.837l17.007-54.659h12.894L205.255,141h-11.074l-3.401-12.656H172.666z
		 M181.683,94.33l-6.961,26.104h13.922L181.683,94.33z"/>
	<path fill="#A0010F" d="M211.347,141V86.341h10.521V141H211.347z"/>
	<path fill="#A0010F" d="M261.498,141L242.75,96.782c0.555,4.825,1.424,11.786,1.424,21.911V141h-9.492V86.341h13.211l19.063,44.297
		c-0.475-3.006-1.424-10.916-1.424-18.668V86.341h9.492V141H261.498z"/>
	<path fill="#A0010F" d="M287.84,141V86.341h10.521V141H287.84z"/>
	<path fill="#A0010F" d="M318.611,128.344L315.209,141h-10.836l17.006-54.659h12.895L351.201,141h-11.074l-3.402-12.656H318.611z
		 M327.629,94.33l-6.961,26.104h13.922L327.629,94.33z"/>
	<path fill="#A0010F" d="M384.107,141l-18.746-44.218c0.553,4.825,1.424,11.786,1.424,21.911V141h-9.492V86.341h13.209
		l19.064,44.297c-0.475-3.006-1.424-10.916-1.424-18.668V86.341h9.492V141H384.107z"/>
</g>
<g>
	<g>
		<path fill="#3763A1" d="M76.592,175.46c0.949-1.582,1.74-3.718,2.373-6.407l7.04-33.144c0.791-3.718,3.876-5.063,6.803-5.063
			c1.424,0,2.848,0.396,3.797,1.028l-7.515,34.409c-1.345,5.933-3.401,10.204-5.774,13.21c1.898,0.87,3.876,1.503,6.091,1.503
			c12.814,0,19.143-17.877,19.143-32.748c0-10.679-4.034-19.934-14.476-19.934c-12.656,0-18.193,6.17-18.193,12.894
			c0,2.057,0.633,3.48,1.582,4.588c-1.187,0.554-2.294,0.791-3.401,0.791c-4.034,0-6.407-3.56-6.407-7.515
			c0-7.91,9.176-14.555,27.923-14.555c16.532,0,23.177,10.995,23.177,23.572c0,17.561-10.125,37.969-28.239,37.969
			c-4.351,0-7.673-1.582-10.441-3.48c-3.56,2.689-7.436,3.48-10.758,3.48c-4.034,0-7.04-2.057-7.04-5.537
			c0-3.401,2.927-7.198,8.227-7.198C72.558,173.324,74.535,174.273,76.592,175.46z M74.614,178.07
			c-1.503-1.266-2.769-2.136-4.034-2.136c-2.215,0-3.56,1.187-3.56,2.294c0,1.187,1.187,1.978,2.848,1.978
			C71.292,180.206,73.032,179.652,74.614,178.07z"/>
		<path fill="#3763A1" d="M123.263,154.656c0.237-1.266-0.079-1.978-0.791-1.978c-0.396,0-0.87,0.316-1.582,0.949
			c-1.028-0.633-1.582-3.085,0-4.351c2.689-2.136,5.537-3.797,8.859-3.797c2.848,0,4.43,1.345,3.797,4.351l-4.825,22.86
			c-0.949,4.43,0.316,5.854,2.373,5.854c2.927,0,6.328-1.978,8.306-3.955c0.87,0.396,1.345,1.107,1.345,1.898
			c0,0.554-0.237,1.187-0.712,1.74c-3.718,4.192-9.018,7.831-14.317,7.831c-3.955,0-8.543-2.215-7.04-9.413L123.263,154.656z
			 M131.885,129.739c3.085,0,5.379,2.452,5.063,5.537c-0.475,3.085-3.085,5.537-6.17,5.537s-5.379-2.452-4.904-5.537
			C126.189,132.191,128.8,129.739,131.885,129.739z"/>
		<path fill="#3763A1" d="M166.61,147.774c1.345-1.582,3.401-2.294,5.379-2.294c1.424,0,2.769,0.396,3.718,1.028l-5.537,26.183
			c-0.949,4.43,0.316,5.854,2.373,5.854c2.927,0,6.328-1.978,8.306-3.955c0.87,0.396,1.345,1.107,1.345,1.898
			c0,0.554-0.237,1.187-0.712,1.74c-3.718,4.192-9.413,7.831-13.685,7.831c-3.718,0-7.436-1.74-7.356-7.989
			c-3.322,4.667-7.515,7.989-12.023,7.989c-8.227,0-9.888-8.227-9.888-13.289c0-13.843,8.938-27.606,19.934-27.606
			C162.022,145.164,164.632,146.034,166.61,147.774z M165.028,151.729c-1.345-0.475-2.531-0.633-3.718-0.633
			c-9.571,0-12.973,12.498-12.973,21.12c0,3.955,1.819,5.695,4.271,5.695c2.531,0,5.854-2.057,7.989-4.983L165.028,151.729z"/>
		<path fill="#3763A1" d="M193.821,153.391c3.243-4.667,7.198-7.91,11.707-7.91c3.243,0,6.882,2.531,6.645,8.147
			c3.322-4.746,7.277-8.147,11.865-8.147c3.56,0,8.701,2.373,6.645,11.628l-3.876,18.193c-0.475,2.294,0.554,3.243,2.136,3.243
			c2.927,0,6.328-1.978,8.306-3.955c0.87,0.396,1.345,1.107,1.345,1.898c0,0.554-0.237,1.187-0.712,1.74
			c-3.718,4.192-9.018,7.831-14.317,7.831c-3.955,0-8.147-1.978-6.17-11.232l3.322-15.741c0.633-2.531,0.712-4.667-1.898-4.667
			c-2.689,0-4.825,1.424-6.882,3.639l-4.904,23.019c-0.791,3.639-3.797,4.983-6.645,4.983c-1.424,0-2.769-0.396-3.718-1.028
			l5.537-25.945c0.554-2.531,0.712-4.667-1.898-4.667c-2.848,0-5.142,1.582-7.277,4.113l-4.825,22.544
			c-0.791,3.639-3.797,4.983-6.645,4.983c-1.424,0-2.769-0.396-3.718-1.028l6.486-30.375c0.316-1.266-0.079-1.978-0.791-1.978
			c-0.396,0-0.87,0.316-1.582,0.949c-1.028-0.633-1.582-3.085,0-4.351c2.689-2.136,5.537-3.797,8.859-3.797
			c2.848,0,4.509,1.345,3.797,4.351L193.821,153.391z"/>
		<path fill="#3763A1" d="M276.879,153.628c-2.057,1.74-5.141,5.458-8.385,7.515c0.08,0.316,0.08,0.633,0.08,0.87
			c0,12.103-11.154,24.047-20.646,24.047c-8.146,0-11.627-6.565-11.627-14.001c0-11.944,8.305-26.895,20.25-26.895
			c3.955,0,7.119,1.107,9.492,4.667c-0.158,1.819-1.504,2.689-2.689,2.215c-1.504-0.554-3.164-0.87-5.063-0.87
			c-7.199,0-11.865,10.6-11.865,18.352c0,6.961,2.373,9.65,5.141,9.65c4.035,0,9.098-5.854,9.098-12.973
			c0-1.028-0.158-2.136-0.396-3.243c-1.424-0.079-2.768-0.396-3.639-0.949c-1.66-4.351,0.08-8.306,4.588-8.306
			c2.689,0,4.984,1.345,6.25,3.639c3.164-1.978,6.09-5.379,9.412-8.068C278.383,150.543,277.986,152.679,276.879,153.628z"/>
		<path fill="#3763A1" d="M276.881,149.277c2.689-2.136,5.537-3.797,8.859-3.797c2.848,0,4.508,1.345,3.797,4.351l-0.791,3.56
			c3.322-4.746,8.385-7.91,12.973-7.91c4.191,0,7.197,3.322,5.379,11.628l-3.877,18.193c-0.475,2.294,0.555,3.243,2.137,3.243
			c2.926,0,6.328-1.978,8.305-3.955c0.871,0.396,1.346,1.107,1.346,1.898c0,0.554-0.238,1.187-0.713,1.74
			c-3.717,4.192-9.018,7.831-14.316,7.831c-3.955,0-8.148-1.978-6.17-11.232l3.322-15.741c0.711-3.322-0.396-4.667-2.137-4.667
			c-2.135,0-5.299,1.978-7.039,4.113l-4.826,22.544c-0.791,3.639-3.797,4.983-6.645,4.983c-1.424,0-2.768-0.396-3.717-1.028
			l6.486-30.375c0.316-1.266-0.08-1.978-0.791-1.978c-0.396,0-0.871,0.316-1.582,0.949
			C275.852,152.995,275.299,150.543,276.881,149.277z"/>
		<path fill="#3763A1" d="M334.703,178.07c-3.322,4.667-7.514,7.989-12.023,7.989c-8.227,0-9.887-8.227-9.887-13.289
			c0-13.843,8.938-27.606,19.934-27.606c3.242,0,5.695,0.712,7.594,2.215l1.977-9.255c0.475-2.136-1.027-2.61-2.293-1.107
			c-1.107-1.028-1.188-1.819-1.188-2.452c0-1.819,5.695-5.616,9.967-5.616c2.848,0,4.43,1.345,3.797,4.351l-8.305,39.393
			c-0.949,4.43,0.316,5.854,2.373,5.854c2.926,0,6.328-1.978,8.305-3.955c0.871,0.396,1.346,1.107,1.346,1.898
			c0,0.554-0.238,1.187-0.713,1.74c-3.717,4.192-9.412,7.831-13.684,7.831C338.184,186.06,334.625,184.319,334.703,178.07z
			 M334.861,173.008l4.51-21.199c-1.346-0.475-2.611-0.712-3.797-0.712c-9.572,0-12.973,12.498-12.973,21.12
			c0,3.955,1.818,5.695,4.271,5.695c2.531,0,5.854-2.057,7.988-4.983V173.008z"/>
		<path fill="#3763A1" d="M351.236,175.618c0.554-3.243,2.848-6.091,6.724-6.091c1.266,0,2.294,0.316,3.164,1.107
			c-1.028,1.187-1.661,3.085-1.661,4.983c0,3.639,2.452,5.221,4.983,5.221c3.006,0,6.249-2.452,6.249-6.328
			c0-6.012-13.052-5.3-13.052-17.165c0-6.328,4.351-12.182,13.526-12.182c6.724,0,9.967,2.531,9.967,7.673
			c0,4.43-2.61,6.645-5.537,6.486c-1.028-0.079-2.136-0.396-3.164-1.107c0.791-0.949,1.345-2.689,1.345-4.271
			c0-2.927-1.661-4.271-3.56-4.271c-2.136,0-4.588,2.136-4.588,6.407c0,8.385,12.973,6.565,12.973,16.611
			c0,7.673-4.588,13.368-16.216,13.368C353.926,186.06,350.366,180.918,351.236,175.618z"/>
	</g>
</g>
</svg>
